# xmcd
#
# Track frame offsets:
#	150
#	22100
#	38440
#	74572
#	97950
#	118782
#	148497
#	168907
#	215687
#	233650
#	243487
#	269650
#	293670
#
# Disc length: 4336
#
# Revision: 1
# Processed by: cddbd v1.5.1PL0 Copyright (c) Steve Scherf et al.
# Submitted via: ExactAudioCopy v0.95a5
# Normalized: r0:TRMNUM
#
DISCID=c610ee0d
DTITLE=Sun Walk and The Dog Brothers - Blues Everyday
DYEAR=1900
DGENRE=
TTITLE0=Water Blues
TTITLE1=Trouble in the neighbourhood
TTITLE2=Love is Freedom
TTITLE3=Tell me what to do
TTITLE4=Blues make me feel good
TTITLE5=Lady of Love
TTITLE6=Bad Times
TTITLE7=Don't leave me alone
TTITLE8=Money to pay account
TTITLE9=tell me, tell me baby
TTITLE10=When you meet a real love
TTITLE11=Blues Everyday
TTITLE12=Lord is here
EXTD=
EXTT0=
EXTT1=
EXTT2=
EXTT3=
EXTT4=
EXTT5=
EXTT6=
EXTT7=
EXTT8=
EXTT9=
EXTT10=
EXTT11=
EXTT12=
PLAYORDER=
